<svg width="28" height="32" viewBox="0 0 28 32" fill="none" xmlns="http://www.w3.org/2000/svg">
<path d="M18.2852 0V6.85645C18.2852 7.76576 18.6471 8.63827 19.29 9.28125C19.9329 9.92406 20.8047 10.2851 21.7139 10.2852H27.4287V28.5713C27.4287 29.4805 27.0668 30.3522 26.4238 30.9951C25.7809 31.638 24.9092 32 24 32H3.42871C2.5194 32 1.64688 31.6381 1.00391 30.9951C0.361175 30.3522 6.05996e-05 29.4804 0 28.5713V3.42773C0.000124478 2.51868 0.361156 1.64676 1.00391 1.00391C1.64688 0.360924 2.5194 0 3.42871 0H18.2852ZM3.92871 13.9277V20.1006H5.05566V17.6143H7.68164V20.1006H8.81738V13.9277H7.68164V16.6201H5.05566V13.9277H3.92871ZM9.5 13.9277V14.9219H11.0986V20.1006H12.2344V14.9219H13.8086V13.9277H9.5ZM13.9912 13.9277V14.9219H15.5898V20.1006H16.7246V14.9219H18.2988V13.9277H13.9912ZM18.9873 13.9277V20.1006H20.1143V17.8213H21.29C21.7097 17.8213 22.0801 17.7444 22.4004 17.5898C22.7207 17.4352 22.972 17.2139 23.1543 16.9268C23.3421 16.634 23.4365 16.2828 23.4365 15.874C23.4365 15.46 23.3452 15.1094 23.1631 14.8223C22.9808 14.5295 22.7263 14.3083 22.4004 14.1592C22.0801 14.0046 21.7097 13.9277 21.29 13.9277H18.9873ZM21.3066 14.9219C21.5109 14.9219 21.6878 14.9631 21.8369 15.0459C21.986 15.1232 22.1027 15.2334 22.1855 15.377C22.2683 15.5149 22.3095 15.6809 22.3096 15.874C22.3096 16.0618 22.2684 16.2285 22.1855 16.3721C22.1027 16.5156 21.986 16.6281 21.8369 16.7109C21.6878 16.7883 21.511 16.8271 21.3066 16.8271H20.1143V14.9219H21.3066ZM26.8115 8H21.7139C21.4109 7.99993 21.1205 7.87919 20.9062 7.66504C20.6919 7.45071 20.5713 7.15955 20.5713 6.85645V0.719727L26.8115 8Z" fill="#3ABDFF"/>
</svg>
