<svg width="32" height="32" viewBox="0 0 32 32" fill="none" xmlns="http://www.w3.org/2000/svg">
<path d="M0.0946276 18.137H0V30.3756C0 31.2587 0.72548 31.9842 1.60867 31.9842H14.21C14.0996 24.3351 7.82257 18.137 0.0946276 18.137ZM0.0946276 8.04338H0V13.2479C10.3933 13.2952 18.8467 21.654 18.9571 31.9842H24.3509C24.2563 18.7679 13.4214 8.04338 0.0946276 8.04338ZM32 30.3913V19.3356C28.341 10.3775 20.9758 3.29621 11.8127 7.06948e-06H1.60867C0.72548 7.06948e-06 0 0.725488 0 1.60868V3.17004C15.9921 3.21735 29.0034 16.1025 29.0981 32H30.3913C31.2903 31.9842 32 31.2745 32 30.3913ZM27.7891 4.46329C29.2716 5.94579 30.7856 7.82258 32 9.47857V1.59291C32.0006 1.38355 31.9598 1.17614 31.88 0.982594C31.8002 0.789052 31.6829 0.613204 31.5348 0.465165C31.3868 0.317125 31.2109 0.199817 31.0174 0.119987C30.8239 0.0401577 30.6164 -0.000617574 30.4071 7.06948e-06H22.2849C24.1774 1.30903 26.1331 2.8073 27.7891 4.46329Z" fill="#660066"/>
</svg>
