<svg xmlns="http://www.w3.org/2000/svg" width="18" height="18" viewBox="0 0 18 18" fill="none">
<rect width="18" height="18" rx="2" fill="#CDCDCD"/>
<path d="M7.3125 2.8125H3.9375C3.63913 2.8125 3.35298 2.93103 3.142 3.142C2.93103 3.35298 2.8125 3.63913 2.8125 3.9375V7.3125C2.8125 7.61087 2.93103 7.89702 3.142 8.108C3.35298 8.31897 3.63913 8.4375 3.9375 8.4375H7.3125C7.61087 8.4375 7.89702 8.31897 8.108 8.108C8.31897 7.89702 8.4375 7.61087 8.4375 7.3125V3.9375C8.4375 3.63913 8.31897 3.35298 8.108 3.142C7.89702 2.93103 7.61087 2.8125 7.3125 2.8125ZM7.3125 7.3125H3.9375V3.9375H7.3125V7.3125ZM7.3125 9.5625H3.9375C3.63913 9.5625 3.35298 9.68103 3.142 9.892C2.93103 10.103 2.8125 10.3891 2.8125 10.6875V14.0625C2.8125 14.3609 2.93103 14.647 3.142 14.858C3.35298 15.069 3.63913 15.1875 3.9375 15.1875H7.3125C7.61087 15.1875 7.89702 15.069 8.108 14.858C8.31897 14.647 8.4375 14.3609 8.4375 14.0625V10.6875C8.4375 10.3891 8.31897 10.103 8.108 9.892C7.89702 9.68103 7.61087 9.5625 7.3125 9.5625ZM7.3125 14.0625H3.9375V10.6875H7.3125V14.0625ZM14.0625 2.8125H10.6875C10.3891 2.8125 10.103 2.93103 9.892 3.142C9.68103 3.35298 9.5625 3.63913 9.5625 3.9375V7.3125C9.5625 7.61087 9.68103 7.89702 9.892 8.108C10.103 8.31897 10.3891 8.4375 10.6875 8.4375H14.0625C14.3609 8.4375 14.647 8.31897 14.858 8.108C15.069 7.89702 15.1875 7.61087 15.1875 7.3125V3.9375C15.1875 3.63913 15.069 3.35298 14.858 3.142C14.647 2.93103 14.3609 2.8125 14.0625 2.8125ZM14.0625 7.3125H10.6875V3.9375H14.0625V7.3125ZM9.5625 12.375V10.125C9.5625 9.97582 9.62176 9.83274 9.72725 9.72725C9.83274 9.62176 9.97582 9.5625 10.125 9.5625C10.2742 9.5625 10.4173 9.62176 10.5227 9.72725C10.6282 9.83274 10.6875 9.97582 10.6875 10.125V12.375C10.6875 12.5242 10.6282 12.6673 10.5227 12.7727C10.4173 12.8782 10.2742 12.9375 10.125 12.9375C9.97582 12.9375 9.83274 12.8782 9.72725 12.7727C9.62176 12.6673 9.5625 12.5242 9.5625 12.375ZM15.1875 11.25C15.1875 11.3992 15.1282 11.5423 15.0227 11.6477C14.9173 11.7532 14.7742 11.8125 14.625 11.8125H12.9375V14.625C12.9375 14.7742 12.8782 14.9173 12.7727 15.0227C12.6673 15.1282 12.5242 15.1875 12.375 15.1875H10.125C9.97582 15.1875 9.83274 15.1282 9.72725 15.0227C9.62176 14.9173 9.5625 14.7742 9.5625 14.625C9.5625 14.4758 9.62176 14.3327 9.72725 14.2273C9.83274 14.1218 9.97582 14.0625 10.125 14.0625H11.8125V10.125C11.8125 9.97582 11.8718 9.83274 11.9773 9.72725C12.0827 9.62176 12.2258 9.5625 12.375 9.5625C12.5242 9.5625 12.6673 9.62176 12.7727 9.72725C12.8782 9.83274 12.9375 9.97582 12.9375 10.125V10.6875H14.625C14.7742 10.6875 14.9173 10.7468 15.0227 10.8523C15.1282 10.9577 15.1875 11.1008 15.1875 11.25ZM15.1875 13.5V14.625C15.1875 14.7742 15.1282 14.9173 15.0227 15.0227C14.9173 15.1282 14.7742 15.1875 14.625 15.1875C14.4758 15.1875 14.3327 15.1282 14.2273 15.0227C14.1218 14.9173 14.0625 14.7742 14.0625 14.625V13.5C14.0625 13.3508 14.1218 13.2077 14.2273 13.1023C14.3327 12.9968 14.4758 12.9375 14.625 12.9375C14.7742 12.9375 14.9173 12.9968 15.0227 13.1023C15.1282 13.2077 15.1875 13.3508 15.1875 13.5Z" fill="#667085"/>
</svg>